<?xml version="1.0" encoding="UTF-8" ?>
<!DOCTYPE svg PUBLIC "-//W3C//DTD SVG 1.1//EN" "http://www.w3.org/Graphics/SVG/1.1/DTD/svg11.dtd">
<svg width="460pt" height="410pt" viewBox="0 0 460 410" version="1.1" xmlns="http://www.w3.org/2000/svg">
<g id="#ffffffff">
<path fill="#ffffff" opacity="1.00" d=" M 108.24 21.09 C 123.25 15.58 138.48 10.69 153.80 6.12 C 147.15 18.59 139.73 30.64 133.06 43.11 C 127.65 51.84 123.58 61.32 117.90 69.88 C 113.22 77.24 110.28 85.64 104.82 92.51 C 102.84 86.79 102.65 80.66 100.81 74.90 C 97.40 58.94 93.10 43.17 90.06 27.15 C 96.26 25.57 102.19 23.14 108.24 21.09 Z" />
<path fill="#ffffff" opacity="1.00" d=" M 146.66 30.56 C 151.79 22.61 155.19 13.63 160.82 6.01 C 165.64 11.89 170.14 18.04 175.34 23.61 C 182.28 32.32 189.32 40.96 196.25 49.69 C 202.51 57.49 209.48 64.83 214.46 73.57 C 213.02 73.49 211.59 73.35 210.17 73.13 C 192.57 69.17 174.85 65.64 157.07 62.56 C 149.05 61.64 141.21 58.67 133.05 59.39 C 132.61 58.00 132.42 56.47 133.11 55.11 C 136.72 46.46 142.27 38.82 146.66 30.56 Z" />
<path fill="#ffffff" opacity="1.00" d=" M 67.23 64.05 C 72.05 52.82 78.39 42.33 84.15 31.58 C 87.96 43.59 89.83 56.13 93.02 68.32 C 94.83 75.18 96.65 82.06 97.74 89.09 C 92.72 86.33 88.46 82.49 83.88 79.11 C 77.71 74.81 72.12 69.77 67.23 64.05 Z" />
<path fill="#ffffff" opacity="1.00" d=" M 160.67 74.00 C 160.31 72.03 161.40 69.06 163.87 69.69 C 181.41 73.82 199.28 76.44 216.89 80.29 C 215.80 86.23 213.26 91.76 211.27 97.43 C 206.16 111.67 200.21 125.60 195.06 139.83 C 189.77 156.16 183.00 171.94 177.01 188.01 C 170.28 205.78 162.95 223.30 156.19 241.05 C 155.23 243.92 154.28 246.83 152.58 249.37 C 152.08 236.29 153.63 223.28 154.04 210.22 C 155.26 200.82 154.48 191.31 155.99 181.94 C 156.42 168.11 157.16 154.30 157.77 140.48 C 159.09 128.04 157.93 115.47 159.43 103.04 C 159.26 93.32 161.27 83.73 160.67 74.00 Z" />
<path fill="#ffffff" opacity="1.00" d=" M 51.72 101.68 C 57.44 92.99 63.92 84.85 69.89 76.34 C 79.75 83.00 89.27 90.13 98.84 97.19 C 96.41 99.01 93.87 100.68 91.13 101.99 C 75.45 110.07 59.69 117.99 44.08 126.20 C 39.50 128.61 35.10 131.51 30.04 132.86 C 32.01 128.22 35.64 124.62 38.29 120.39 C 42.39 113.88 47.41 108.03 51.72 101.68 Z" />
<path fill="#ffffff" opacity="1.00" d=" M 288.94 126.95 C 292.99 123.16 296.62 118.84 301.48 116.03 C 302.32 126.07 300.52 136.03 300.41 146.05 C 299.25 156.97 299.67 168.01 298.28 178.92 C 297.05 180.82 294.96 181.87 293.09 183.02 C 271.62 194.30 250.16 205.60 228.62 216.74 C 218.05 222.98 207.16 228.68 196.30 234.40 C 188.54 238.25 181.15 242.80 173.30 246.47 C 169.93 247.85 167.07 251.01 163.17 250.66 C 173.95 239.94 184.70 229.20 195.39 218.39 C 202.07 212.07 209.05 206.06 215.40 199.39 C 220.27 194.91 224.12 189.48 228.99 185.00 C 242.80 172.88 255.15 159.20 268.65 146.74 C 275.84 140.59 282.03 133.40 288.94 126.95 Z" />
<path fill="#ffffff" opacity="1.00" d=" M 144.58 131.65 C 146.96 127.83 149.39 124.03 152.47 120.72 C 152.39 124.17 152.31 127.63 151.91 131.06 C 151.13 138.74 151.87 146.50 150.85 154.16 C 150.29 159.45 150.63 164.80 149.93 170.08 C 149.19 176.26 149.82 182.50 149.22 188.69 C 147.80 197.39 148.82 206.25 147.51 214.97 C 147.34 229.91 145.48 244.76 145.22 259.69 C 145.37 260.94 144.12 261.58 143.16 261.95 C 125.27 268.59 106.90 273.88 89.11 280.78 C 75.75 284.84 62.58 289.46 49.46 294.23 C 46.02 295.61 42.41 296.54 38.74 297.05 C 39.84 294.21 41.43 291.61 43.18 289.14 C 51.58 276.27 59.71 263.23 68.42 250.58 C 77.25 235.84 87.12 221.75 96.08 207.10 C 99.57 200.71 104.27 195.11 107.83 188.77 C 114.18 179.37 120.11 169.69 126.08 160.04 C 132.31 150.61 138.66 141.27 144.58 131.65 Z" />
<path fill="#ffffff" opacity="1.00" d=" M 375.43 146.59 C 378.05 145.21 380.90 144.38 383.70 143.44 C 373.37 180.05 361.27 216.13 349.66 252.36 C 345.18 268.65 338.62 284.30 334.50 300.70 C 333.64 303.60 332.99 306.71 331.10 309.16 C 329.73 311.02 327.34 311.53 325.32 312.36 C 318.73 314.68 312.28 317.34 305.91 320.20 C 296.40 324.51 286.47 327.81 276.93 332.06 C 266.52 336.81 255.85 340.89 245.03 344.57 C 238.61 339.14 231.77 334.17 225.90 328.11 C 216.43 318.18 205.26 310.12 195.43 300.57 C 183.19 290.57 171.78 279.61 159.90 269.19 C 157.82 267.37 155.17 265.62 154.97 262.59 C 167.18 257.39 178.46 250.28 190.42 244.56 C 203.32 237.34 216.96 231.49 229.40 223.47 C 247.07 214.01 264.78 204.61 282.64 195.52 C 293.19 189.27 304.42 184.28 315.01 178.13 C 335.27 167.83 355.29 157.11 375.43 146.59 Z" />
<path fill="#ffffff" opacity="1.00" d=" M 410.86 250.11 C 416.43 248.47 422.00 246.70 427.78 245.87 C 426.94 247.64 426.08 249.39 424.98 251.01 C 419.68 258.31 413.93 265.29 408.78 272.69 C 395.07 292.87 379.77 311.89 365.74 331.84 C 357.03 342.54 349.67 354.24 341.05 365.01 C 331.29 377.92 322.37 391.49 312.10 403.99 C 306.51 398.87 300.48 394.23 294.94 389.05 C 291.32 385.27 287.08 382.21 283.13 378.80 C 274.07 370.52 264.99 362.27 255.55 354.43 C 253.71 353.05 252.66 350.91 250.82 349.54 C 259.22 346.89 267.10 342.84 275.28 339.58 C 294.62 332.33 313.13 322.97 332.77 316.50 C 334.49 315.89 336.36 315.06 337.05 313.21 C 340.22 305.93 341.70 298.04 344.47 290.61 C 347.12 283.56 348.71 276.17 351.38 269.14 C 351.82 267.37 353.79 266.96 355.24 266.35 C 363.78 263.46 372.54 261.27 381.24 258.91 C 391.05 255.77 401.01 253.13 410.86 250.11 Z" />
<path fill="#ffffff" opacity="1.00" d=" M 120.03 276.85 C 127.81 274.03 135.60 271.20 143.61 269.13 C 140.33 284.83 137.26 300.58 133.41 316.16 C 127.15 344.83 121.24 373.58 114.77 402.20 C 113.32 400.98 111.88 399.74 110.67 398.28 C 105.20 391.45 99.76 384.59 94.01 377.99 C 77.52 356.79 60.98 335.62 44.58 314.35 C 42.19 311.13 38.54 308.57 37.84 304.38 C 47.60 301.84 56.94 297.98 66.54 294.91 C 78.45 290.69 90.60 287.14 102.39 282.58 C 108.18 280.41 114.14 278.73 120.03 276.85 Z" />
<path fill="#ffffff" opacity="1.00" d=" M 149.83 269.99 C 153.80 270.97 156.07 274.55 158.93 277.14 C 170.65 288.11 183.40 297.91 195.08 308.94 C 203.95 317.44 214.09 324.51 222.53 333.47 C 227.78 339.20 233.94 343.99 239.74 349.14 C 245.56 354.35 251.45 359.51 257.45 364.52 C 268.09 373.54 277.97 383.43 288.97 392.03 C 294.22 396.15 298.78 401.05 303.84 405.41 C 301.58 405.83 299.33 406.42 297.02 406.34 C 260.35 406.31 223.67 406.35 187.00 406.35 C 164.99 406.20 142.97 406.66 120.96 406.09 C 124.33 387.30 128.89 368.74 132.72 350.04 C 136.48 335.03 139.94 319.95 142.91 304.76 C 145.08 293.14 148.73 281.79 149.83 269.99 Z" />
</g>
</svg>
